<svg xmlns="http://www.w3.org/2000/svg" width="20" height="24" fill="none"><path fill="#36080A" stroke="#36080A" stroke-width=".1" d="M3.8623.443604C5.22666.443831 6.33789 1.53985 6.33789 2.89673c-.00006 1.34026-1.08435 2.42368-2.42578 2.45019v-.00683H3.8623c-1.36455 0-2.47656-1.09611-2.47656-2.45313C1.3858 1.53024 2.49753.443604 3.8623.443604Zm0 .797856c-.9229 0-1.67084.73842-1.67089 1.6455 0 .90713.74796 1.64551 1.67089 1.64551.92275-.00023 1.66993-.73851 1.66993-1.64551-.00006-.90695-.74722-1.64528-1.66993-1.6455ZM5.26367 14.4641 3.93848 8.26489v-.00195l-.04395-.21973c-.16627-1.07619.43158-1.79847 1.0791-2.02343.64417-.22121 1.54134-.01119 1.99707.97656.2863.62167.63963 1.33901.9209 1.90039.14061.28064.26299.52264.35059.69433.04377.08581.07847.15431.10254.20118.01203.02343.02202.04149.02832.05371l.00879.01758v.00097h.00097c.35133.7319 1.1203 1.2119 1.83599 1.2119h3.0673v.8076h-3.0673c-1.02809 0-1.97336-.6285-2.39458-1.5947h.00098l-.00293-.0049-.63379-1.10642c-.30925-.55666-.67056-1.23578-.94629-1.84082-.12776-.28069-.29819-.44878-.47949-.53125-.13586-.06171-.27526-.0742-.40332-.05274l-.12305.03223c-.36781.12621-.64752.53796-.54395 1.1709l.02539.12988L6.0332 14.2844l.00098.0049c.11.3525.29287.614.53027.8027.23682.1882.52585.3021.84668.3653.64068.126 1.41871.0503 2.18555-.0547h.00098c.0552-.0092.96054-.1045 1.86914-.2002.4533-.0478.9066-.0958 1.2529-.1328.3438-.0368.5862-.0631.6153-.0684l-.001-.001c.4454-.0685.8893.1383 1.1074.5166l.04.0772c.1804.3996.6349 1.5747 1.045 2.6523.2048.5384.3986 1.0519.541 1.4307.0712.1894.1293.3457.1699.4541.0202.054.0361.0962.0469.125.0054.0144.0099.0258.0127.0332.0012.0034.0022.006.0029.0078l.001.002V20.3c.0672.1798.2774.2771.4726.212l-.0009-.001 2.1816-.6543.2285.7734c-.0158.0047-.035.011-.0576.0176-.0677.0198-.1646.048-.2812.082-.2334.0681-.5461.1593-.8624.25-.3161.0907-.6362.1811-.8847.2491-.124.0339-.2299.0623-.3086.082-.0395.0099-.0726.0173-.0967.0225-.0118.0025-.0212.0046-.0283.0058-.0043.0007-.0072.0008-.0088.001-.4822-.0032-.9261-.2954-1.0986-.75v-.001l-.001-.0019c-.0007-.0019-.0016-.0051-.0029-.0088-.0028-.0074-.0075-.0182-.0127-.0323-.0107-.0285-.0259-.0705-.0459-.124-.0403-.1075-.0984-.2624-.169-.4502-.1412-.3756-.3335-.8843-.5361-1.417-.4047-1.0641-.853-2.2263-1.0254-2.6103l-.001-.002-.0488-.0654c-.0595-.0564-.1487-.0854-.2393-.0772l-.0039.001c-.0801.0141-.9888.1114-1.8965.2071-.9072.0955-1.80773.1886-1.86422.1933h-.00195c-.62087.0814-1.56836.2094-2.44433.0381-.87126-.1704-1.66556-.6353-1.99805-1.7363v-.0283h.00097l-.00195-.0108Z"/><path fill="#36080A" stroke="#36080A" stroke-width=".1" d="M3.37598 12.4419c.17756-.1268.43168-.0841.55859.0937.11111.1559.0932.3713-.03223.5079l-.06054.0527c-1.40497.9934-2.24219 2.6233-2.24219 4.3398.00009 2.9315 2.37739 5.3135 5.30273 5.3135 2.92322-.0002 5.29846-2.379 5.30176-5.3076.0183-.1556.0652-.2547.1299-.3154.0641-.0602.1521-.0898.2676-.0899.2201 0 .3984.1786.3984.3994-.0001 3.3702-2.7372 6.1153-6.09863 6.1202C3.54042 23.5507.8038 20.8058.803711 17.436c0-2.1705.964279-3.8471 2.572269-4.9941Z"/></svg>