<svg xmlns="http://www.w3.org/2000/svg" width="46" height="36" fill="none"><path stroke="#fff" stroke-linecap="round" d="M1.22698 26.2318s25.86282 9.787 35.08522 4.9126c9.2225-4.8743 14.0755-15.0537 1.7837-24.41735C25.8042-2.63662 7.87719.407615 6.15395 12.3215 4.4307 24.2355 25.9546 34.9902 25.9546 34.9902"/><path fill="#fff" d="M21.2685 10.6308c1.2894.4567 2.1132 1.0709 2.4713 1.8427.3701.7761.3247 1.8148-.1362 3.1161l-2.5055 7.0737-9.5629-3.3872L15.341 8.53125l5.9275 2.09955Zm-.7078 4.4453c.2452-.6924.2933-1.2263.144-1.6016-.133-.3831-.4861-.6761-1.0591-.8791l-2.2565-.7992-2.2073 6.232 3.8502 1.3638 1.5287-4.3159Zm6.3975 6.9822c-.4736.6922-1.0351 1.1584-1.6845 1.3987-.6333.2325-1.4036.1881-2.311-.1333l-.5909-.2093.7992-2.2564.591.2093c.9431.3341 1.7036.3683 2.2814.1027.5778-.2656 1.0105-.8044 1.298-1.6162.1142-.3224.1981-.6353.2519-.9387l.6145-2.9869-2.0415-.7231.7992-2.2565 4.4233 1.5668-2.015 11.3791-2.7936-.9895.4675-2.515-.0895-.0317Zm4.0185 4.1039 3.8058-10.7448 2.9369 1.0402-3.8058 10.7449-2.9369-1.0403Z"/></svg>