<svg xmlns="http://www.w3.org/2000/svg" width="25" height="22" fill="none"><path fill="#36080A" d="M3.37224 14.3969c-.17634 0-.32483-.1128-.38051-.2819L.309591 5.51608c-.111368-.35711-.046404-.74242.167054-1.04315.222738-.30072.556845-.47928.937355-.47928h17.6798c.1485 0 .2692.07518.3341.19735L20.588.272165c.0464-.169158.2042-.28193062.3805-.28193062h2.8863c.2228 0 .3991.17855662.3991.40410062 0 .225545-.1763.404101-.3991.404101h-2.5986L17.3769 13.9552l1.9953 3.355c.0743.1222.0743.2819 0 .4041-.0742.1222-.2041.2067-.3434.2067h-.9837c.3898.4323.6311 1.0056.6311 1.6446 0 1.3439-1.0859 2.4434-2.413 2.4434-1.3272 0-2.413-1.0995-2.413-2.4434 0-1.3438.2413-1.2029.6311-1.6446H7.01029c.38979.4323.63109 1.0056.63109 1.6446 0 1.3439-1.08585 2.4434-2.41299 2.4434-1.32715 0-2.413-1.0995-2.413-2.4434 0-1.3438 1.08585-2.4434 2.413-2.4434H18.3421l-1.6149-2.7065H3.37224v-.0188Zm11.29466 5.1499c0 .9022.7239 1.6446 1.6241 1.6446.9003 0 1.6242-.733 1.6242-1.6446 0-.9115-.7239-1.6446-1.6242-1.6446-.9002 0-1.6241.7331-1.6241 1.6446Zm-11.0348 0c0 .9022.7239 1.6446 1.62413 1.6446.90023 0 1.62413-.733 1.62413-1.6446 0-.9115-.7239-1.6446-1.62413-1.6446-.90023 0-1.62413.7331-1.62413 1.6446Zm15.638-14.79194c-.0556.0282-.1113.0376-.1763.0376H1.414c-.12065 0-.22274.05638-.29698.15036-.07425.09398-.09281.21615-.05569.32892l2.59861 8.31696H16.6623l2.6078-8.83384Z"/></svg>