<svg xmlns="http://www.w3.org/2000/svg" width="150.03" height="14.274"><g fill="#484538"><path d="m0 10.534 3.139-8.269H5l3.1 8.269H6.215l-.621-1.843H2.5l-.653 1.844Zm4.045-6.225L2.971 7.343H5.12L4.077 4.309h-.021Z"/><path d="M11.514 7.795h1.759a1.367 1.367 0 0 0 .558 1.18 2.1 2.1 0 0 0 1.275.348 2.331 2.331 0 0 0 1.043-.2.874.874 0 0 0 .569-.832c0-.474-.421-.832-1.275-1.064-1.459-.422-2.265-.654-2.38-.722a2.025 2.025 0 0 1-1.279-1.933 2.184 2.184 0 0 1 .99-1.886 3.575 3.575 0 0 1 2.11-.611 3.954 3.954 0 0 1 2.307.611 2.356 2.356 0 0 1 1.011 2.054h-1.758c-.042-.832-.59-1.254-1.633-1.254a1.612 1.612 0 0 0-.843.211.8.8 0 0 0-.4.727.694.694 0 0 0 .453.664 17.78 17.78 0 0 0 2.012.59 4.8 4.8 0 0 1 1.454.558 2.079 2.079 0 0 1 1.011 1.854 2.3 2.3 0 0 1-.885 1.9 3.942 3.942 0 0 1-2.56.748 4.01 4.01 0 0 1-2.455-.706 2.592 2.592 0 0 1-1.063-2.237Z"/><path d="M21.079 2.265v1.359h-1.643V2.265Zm-1.643 8.269V4.54h1.643v5.994Z"/><path d="M24.461 2.749v1.8h1.2v1.1h-1.2v2.968a.813.813 0 0 0 .137.558.8.8 0 0 0 .558.137 2.451 2.451 0 0 0 .506-.042v1.285a5.618 5.618 0 0 1-.959.063c-1.264 0-1.886-.474-1.886-1.422V5.667h-1v-1.1h1v-1.8h1.643Z"/><path d="M32.127 7.943H27.81c.042 1.011.537 1.517 1.475 1.517a1.5 1.5 0 0 0 .853-.253.879.879 0 0 0 .442-.527h1.454a2.693 2.693 0 0 1-2.8 2.012 2.951 2.951 0 0 1-2.235-.87 3.138 3.138 0 0 1-.832-2.28 3.117 3.117 0 0 1 .853-2.265 2.906 2.906 0 0 1 2.212-.9 2.653 2.653 0 0 1 2.265 1.09 3.657 3.657 0 0 1 .653 2.465ZM27.81 6.9h2.676c-.159-.854-.59-1.278-1.306-1.278a1.285 1.285 0 0 0-1.064.464 1.4 1.4 0 0 0-.305.811Z"/><path d="M36.501 10.534V2.265h3.9c1.759 0 2.644.685 2.644 2.054a1.816 1.816 0 0 1-1.127 1.728 1.966 1.966 0 0 1 1.517 2.1 2.129 2.129 0 0 1-.906 1.833 3.366 3.366 0 0 1-2.012.569h-4.016Zm1.822-6.858v1.939h1.844c.737 0 1.117-.327 1.117-.99s-.421-.948-1.254-.948h-1.707Zm0 3.181v2.276h1.949c.9 0 1.348-.358 1.348-1.085 0-.79-.432-1.18-1.306-1.18h-1.98Z"/><path d="m49.944 4.551-2.507 6.742a2.051 2.051 0 0 1-.737 1.043 2.363 2.363 0 0 1-1.317.316c-.305 0-.632-.021-1.011-.053V11.24c.579.042.9.063.959.053.421-.032.632-.284.632-.748a.888.888 0 0 0-.074-.369l-2.108-5.614h1.759l1.359 4.1h.022l1.306-4.1h1.707Z"/></g><path fill="#484538" d="M108.862 5.457a.935.935 0 0 0-.253-.727 1.345 1.345 0 0 0-1.032-.337 1.044 1.044 0 0 0-.98 1.1c0 .126 0 .7.011.916h1.011c.758 0 1.211-.348 1.243-.927Z"/><path fill="#484538" d="M94.001 7.743c-.78 0-1.285.369-1.317 1.011-.032.611.358 1.169 1.359 1.159a1.118 1.118 0 0 0 1.058-1.169c0-.158-.011-.99-.011-.99h-1.082Z"/><path fill="#484538" d="M106.249 0H64.072a7.306 7.306 0 0 0-7.45 7.142 7.3 7.3 0 0 0 7.45 7.132h42.18a7.3 7.3 0 0 0 7.448-7.132A7.313 7.313 0 0 0 106.249 0Zm.527 9.534a1.033 1.033 0 0 0 .8.263 1.315 1.315 0 0 0 1.454-1.022v-.031l.042-.021a8.847 8.847 0 0 1 1.4 0h.021c.147.137.053.432-.042.7-.011.042-.032.084-.042.126a2.779 2.779 0 0 1-2.855 1.938 2.272 2.272 0 0 1-2.518-1.8c0-.042-.011-.706 0-3.834v-.417a2.524 2.524 0 0 1 2.581-2.644 2.818 2.818 0 0 1 2.834 2.665c0 1.443-1.064 2.349-2.707 2.455-.327.021-.716.021-1.138.011v.864a.9.9 0 0 0 .158.748Zm-6.047.053a1.5 1.5 0 0 0 .98-1.148V2.771h1.78v5.994a2.97 2.97 0 0 1-2.676 2.707c-.095.011-.411.011-.79.011-.727 0-1.7-.011-1.749-.011h-.084v-8.7h1.928v6.814ZM94.04 4.33a1.411 1.411 0 0 0-1.538 1.085 9.451 9.451 0 0 1-1.338 0c-.126-.105.042-.506.116-.716a2.7 2.7 0 0 1 2.781-1.875 2.22 2.22 0 0 1 2.433 1.738c.011.074 0 4.014 0 4.235a2.458 2.458 0 0 1-2.5 2.56 2.7 2.7 0 0 1-2.749-2.581c0-1.391 1.127-2.275 2.634-2.381.379-.021.8-.021 1.222-.011v-.948c.105-.916-.5-1.1-1.043-1.1ZM83.358 9.881a.811.811 0 0 0 .9-.822V2.771h1.728v6.3a.821.821 0 0 0 .916.811c.548 0 .8-.263.811-.811v-6.3h1.738V9.26a2.683 2.683 0 0 1-2.591 2.212 2.624 2.624 0 0 1-1.844-.79 2.728 2.728 0 0 1-1.812.811 2.463 2.463 0 0 1-2.444-2.2V2.771h1.7v6.278a.822.822 0 0 0 .898.832ZM79.081 6.3v1.706h-5.646a1.952 1.952 0 0 0 1.338 1.8h4.3v1.7h-4.637a4.484 4.484 0 0 1-2.886-4.34 4.224 4.224 0 0 1 2.907-4.372c.042-.011 1.57-.011 4.53 0h.085v1.7h-4.32a1.851 1.851 0 0 0-1.317 1.833h5.646Zm-16.109 6.183a5.615 5.615 0 0 1-4.14-6.542 5.549 5.549 0 0 1 5.32-4.4c2.9 0 4.709 1.538 4.625 3.982a3.143 3.143 0 0 1-4.108 2.9 3.179 3.179 0 0 1-1.57-1.243.308.308 0 0 1 .063-.337s.211-.116.337 0c1.085.98 4 .811 3.9-1.422 0-1.675-2.044-2.423-3.676-1.991a3.849 3.849 0 0 0-2.728 3.023 3.648 3.648 0 0 0 2.506 4.047 5.3 5.3 0 0 0 5.5-1.433.235.235 0 0 1 .295-.084.257.257 0 0 1 .126.242 5.8 5.8 0 0 1-6.45 3.258Zm1.1-7.153a1.1 1.1 0 1 1 1.1 1.1 1.1 1.1 0 0 1-1.1-1.1Z"/><path fill="#484538" d="M122.156 3.677a2.758 2.758 0 0 0-1.19-.758 4.907 4.907 0 0 0-1.643-.242 4.661 4.661 0 0 0-1.717.295 3.36 3.36 0 0 0-1.243.853 3.56 3.56 0 0 0-.758 1.359 5.883 5.883 0 0 0-.253 1.791 6.536 6.536 0 0 0 .242 1.875 3.33 3.33 0 0 0 .716 1.306 2.878 2.878 0 0 0 1.19.769 5 5 0 0 0 1.675.253 4.491 4.491 0 0 0 1.707-.295 3.36 3.36 0 0 0 1.243-.853 3.686 3.686 0 0 0 .758-1.369 6.1 6.1 0 0 0 .253-1.822 6.514 6.514 0 0 0-.242-1.844 3.108 3.108 0 0 0-.727-1.3Zm-.9 4.34a2.732 2.732 0 0 1-.358.916 1.789 1.789 0 0 1-.664.622 2.168 2.168 0 0 1-1.032.232 2.266 2.266 0 0 1-1.022-.2 1.555 1.555 0 0 1-.643-.579 2.772 2.772 0 0 1-.348-.916 6.918 6.918 0 0 1-.105-1.211 5.3 5.3 0 0 1 .105-1.1 2.675 2.675 0 0 1 .358-.906 1.978 1.978 0 0 1 .664-.622 2.051 2.051 0 0 1 1.032-.232 2.183 2.183 0 0 1 1.011.211 1.736 1.736 0 0 1 .653.579 2.8 2.8 0 0 1 .348.906 6.729 6.729 0 0 1 .105 1.18 5.431 5.431 0 0 1-.105 1.117Z"/><path fill="#484538" d="M129.383 5.489a1.644 1.644 0 0 0-.643-.516 2.256 2.256 0 0 0-.98-.19 2.179 2.179 0 0 0-1.011.253 3.6 3.6 0 0 0-.959.758v-.651a.209.209 0 0 0-.032-.116.22.22 0 0 0-.105-.084.76.76 0 0 0-.211-.053 2.721 2.721 0 0 0-.337-.021 1.447 1.447 0 0 0-.327.021.56.56 0 0 0-.211.053.255.255 0 0 0-.116.084.212.212 0 0 0-.032.116V10.8a.256.256 0 0 0 .042.116.214.214 0 0 0 .126.074 1.2 1.2 0 0 0 .242.053c.105 0 .232.011.39.011s.284 0 .39-.011a1.054 1.054 0 0 0 .242-.053.329.329 0 0 0 .126-.074.221.221 0 0 0 .042-.116V7.037a3.346 3.346 0 0 1 .643-.643 1.063 1.063 0 0 1 .611-.221.888.888 0 0 1 .421.095.787.787 0 0 1 .295.263 1.4 1.4 0 0 1 .179.4 2.576 2.576 0 0 1 .063.643v3.224a.256.256 0 0 0 .042.116.186.186 0 0 0 .126.074 1.054 1.054 0 0 0 .242.053c.105 0 .232.011.39.011s.284 0 .379-.011a.937.937 0 0 0 .242-.053.329.329 0 0 0 .126-.074.221.221 0 0 0 .042-.116v-3.5a4.391 4.391 0 0 0-.1-1.055 2.233 2.233 0 0 0-.348-.769Z"/><path fill="#484538" d="M132.838 2.265a1.2 1.2 0 0 0-.242-.053 3.766 3.766 0 0 0-.39-.021 2.111 2.111 0 0 0-.39.021 1.054 1.054 0 0 0-.242.053.241.241 0 0 0-.126.084.221.221 0 0 0-.042.116v8.346a.256.256 0 0 0 .042.116.214.214 0 0 0 .126.074 1.2 1.2 0 0 0 .242.053c.105 0 .232.011.39.011s.284 0 .39-.011a1.054 1.054 0 0 0 .242-.053.329.329 0 0 0 .126-.074.221.221 0 0 0 .042-.116V2.465a.256.256 0 0 0-.042-.116.3.3 0 0 0-.126-.084Z"/><path fill="#484538" d="M135.408 2.402a1.089 1.089 0 0 0-.737.19.938.938 0 0 0-.19.674.835.835 0 0 0 .19.643 1.565 1.565 0 0 0 1.454 0 .923.923 0 0 0 .2-.664.851.851 0 0 0-.19-.643 1.1 1.1 0 0 0-.727-.179Z"/><path fill="#484538" d="M136.041 4.962a1.2 1.2 0 0 0-.242-.053 3.766 3.766 0 0 0-.39-.021 2.111 2.111 0 0 0-.39.021 1.054 1.054 0 0 0-.242.053.241.241 0 0 0-.126.084.221.221 0 0 0-.042.116v5.646a.255.255 0 0 0 .042.116.214.214 0 0 0 .126.074 1.2 1.2 0 0 0 .242.053c.105 0 .232.011.39.011s.284 0 .39-.011a1.054 1.054 0 0 0 .242-.053.329.329 0 0 0 .126-.074.221.221 0 0 0 .042-.116V5.162a.256.256 0 0 0-.042-.116.3.3 0 0 0-.126-.084Z"/><path fill="#484538" d="M142.751 5.489a1.644 1.644 0 0 0-.643-.516 2.256 2.256 0 0 0-.98-.19 2.179 2.179 0 0 0-1.011.253 3.6 3.6 0 0 0-.959.758v-.651a.382.382 0 0 0-.032-.116.22.22 0 0 0-.105-.084.76.76 0 0 0-.211-.053 2.722 2.722 0 0 0-.337-.021 1.447 1.447 0 0 0-.327.021.56.56 0 0 0-.211.053.255.255 0 0 0-.116.084.212.212 0 0 0-.032.116V10.8a.256.256 0 0 0 .042.116.214.214 0 0 0 .126.074 1.2 1.2 0 0 0 .242.053c.105 0 .232.011.39.011s.284 0 .39-.011a1.054 1.054 0 0 0 .242-.053.329.329 0 0 0 .126-.074.221.221 0 0 0 .042-.116V7.037a3.346 3.346 0 0 1 .643-.643 1.062 1.062 0 0 1 .611-.221.888.888 0 0 1 .421.095.786.786 0 0 1 .295.263 1.4 1.4 0 0 1 .179.4 2.576 2.576 0 0 1 .063.643v3.224a.256.256 0 0 0 .042.116.186.186 0 0 0 .126.074 1.054 1.054 0 0 0 .242.053c.105 0 .232.011.39.011s.284 0 .379-.011a.937.937 0 0 0 .242-.053.329.329 0 0 0 .126-.074.221.221 0 0 0 .042-.116v-3.5a4.39 4.39 0 0 0-.099-1.055 2.234 2.234 0 0 0-.348-.769Z"/><path fill="#484538" d="M149.861 6.443a2.417 2.417 0 0 0-.474-.874 2.272 2.272 0 0 0-.832-.579 3.2 3.2 0 0 0-1.211-.211 3.144 3.144 0 0 0-1.211.221 2.334 2.334 0 0 0-.906.643 2.727 2.727 0 0 0-.569 1.032 4.5 4.5 0 0 0-.2 1.359 4.5 4.5 0 0 0 .19 1.38 2.506 2.506 0 0 0 .569.98 2.4 2.4 0 0 0 .948.579 4.2 4.2 0 0 0 1.327.19 6.215 6.215 0 0 0 .79-.053 4.5 4.5 0 0 0 .653-.126 4.343 4.343 0 0 0 .474-.147.9.9 0 0 0 .221-.116.249.249 0 0 0 .063-.095.377.377 0 0 0 .042-.116 1.215 1.215 0 0 1 .021-.169v-.498a.454.454 0 0 0-.032-.158.152.152 0 0 0-.063-.074.21.21 0 0 0-.095-.021.729.729 0 0 0-.253.063c-.105.042-.232.084-.379.137a4.606 4.606 0 0 1-.548.137 3.772 3.772 0 0 1-.737.063 1.954 1.954 0 0 1-.706-.105 1.213 1.213 0 0 1-.485-.316 1.3 1.3 0 0 1-.274-.506 2.514 2.514 0 0 1-.084-.653h3.445a.461.461 0 0 0 .358-.137.622.622 0 0 0 .126-.432v-.256a4.071 4.071 0 0 0-.147-1.106Zm-3.782.906a1.878 1.878 0 0 1 .095-.558 1.229 1.229 0 0 1 .232-.453 1.081 1.081 0 0 1 .379-.305 1.21 1.21 0 0 1 .527-.116 1.068 1.068 0 0 1 .9.379 1.668 1.668 0 0 1 .274 1.053h-2.391Z"/></svg>