<svg xmlns="http://www.w3.org/2000/svg" width="23" height="30" fill="none"><g clip-path="url(#a)"><path fill="url(#b)" d="M16.9438 17.418H3.43666c-.81682 0-1.46791.6516-1.46791 1.4429v8.6229c0 .803.66293 1.443 1.46791 1.443H16.9438c.8168 0 1.4679-.6517 1.4679-1.443v-8.6229c0-.8029-.6629-1.4429-1.4679-1.4429Zm-4.9596 11.4638H8.25127l.10211-11.375h3.73292l-.1021 11.375Z"/><path fill="url(#c)" d="M1.95898 5.48633v2.90921H18.4138V5.48633H1.95898Zm9.96762 2.61965H8.49356V5.63315h3.43304v2.47283Z"/><path stroke="#36080A" stroke-linecap="round" stroke-linejoin="round" stroke-width=".847826" d="m6.00278 16.9272-1.63364-1.7571 3.83551-.8379 2.02425-3.1652 2.0243 3.1652 3.8356.8379-1.6337 1.7571"/><path fill="url(#d)" stroke="#36080A" stroke-linecap="round" stroke-linejoin="round" stroke-width=".847826" d="M17.1483 17.3887H3.29784c-.58841 0-1.06542.4689-1.06542 1.0473v9.4258c0 .5784.47701 1.0473 1.06542 1.0473H17.1483c.5884 0 1.0654-.4689 1.0654-1.0473V18.436c0-.5784-.477-1.0473-1.0654-1.0473Z"/><path fill="#fff" stroke="#36080A" stroke-linecap="round" stroke-linejoin="round" stroke-width=".847826" d="M11.8213 17.3887H8.625v11.5204h3.1963V17.3887Z"/><path stroke="#36080A" stroke-linecap="round" stroke-linejoin="round" stroke-width=".847826" d="M17.6844 5.35059H2.76854c-.58841 0-1.06542.46889-1.06542 1.04731v1.04731c0 .57842.47701 1.04732 1.06542 1.04732H17.6844c.5884 0 1.0654-.4689 1.0654-1.04732V6.3979c0-.57842-.477-1.04731-1.0654-1.04731Z"/><path stroke="#36080A" stroke-linecap="round" stroke-linejoin="round" stroke-width=".791304" d="M11.8213 5.35059H8.625v3.14194h3.1963V5.35059Z"/><path stroke="#36080A" stroke-linecap="round" stroke-linejoin="round" stroke-width=".791304" d="M14.0105 3.84918c-.6274.61675-3.0069 1.95499-3.6343 1.33823-.6274-.61675.734-2.95575 1.3614-3.5725.6274-.616754 1.6455-.616754 2.2729 0 .6274.61675.6274 1.61752 0 2.23427Z"/><path stroke="#36080A" stroke-linecap="round" stroke-linejoin="round" stroke-width=".791304" d="M6.43736 3.84918c.62741.61675 3.00685 1.95499 3.63424 1.33823.6274-.61675-.73393-2.95575-1.36135-3.5725-.62741-.616754-1.64548-.616754-2.27289 0-.62742.61675-.62742 1.61752 0 2.23427ZM19.2812 15.3537v-.5236m0 3.1447v-.5236m1.0665-1.0518h.5327m-3.1988 0h.5328m-13.84526-6.282v-.52365m0 3.14475v-.5237m1.06836-1.0517h.53271m-3.19873 0h.53271"/></g><defs><linearGradient id="b" x1="16.753" x2="1.44719" y1="30.2186" y2="16.536" gradientUnits="userSpaceOnUse"><stop stop-color="#FFB490"/><stop offset=".446877" stop-color="#F18477"/><stop offset="1" stop-color="#D2232A"/></linearGradient><linearGradient id="c" x1="16.7539" x2="14.7163" y1="8.72208" y2="1.51112" gradientUnits="userSpaceOnUse"><stop stop-color="#FFB490"/><stop offset=".446877" stop-color="#F18477"/><stop offset="1" stop-color="#D2232A"/></linearGradient><linearGradient id="d" x1="16.6016" x2="1.33718" y1="30.2022" y2="16.9532" gradientUnits="userSpaceOnUse"><stop stop-color="#FFB490"/><stop offset=".446877" stop-color="#F18477"/><stop offset="1" stop-color="#D2232A"/></linearGradient><clipPath id="a"><path fill="#fff" d="M.460938.163086h22.2554v29.6739H.460938z"/></clipPath></defs></svg>