<svg xmlns="http://www.w3.org/2000/svg" width="21" height="20" fill="none"><path stroke="#fff" stroke-miterlimit="10" stroke-width=".773402" d="M2.89844 9.56055H18.2928v8.94205c0 .4472-.3646.813-.8102.813H3.70867c-.44563 0-.81023-.3658-.81023-.813V9.56055Z"/><path stroke="#fff" stroke-miterlimit="10" stroke-width=".773402" d="M2.09148 6.31055H19.1063c.4456 0 .8102.36581.8102.81292v2.43875H1.28125V7.12347c0-.44711.3646-.81292.81023-.81292Z"/><path stroke="#fff" stroke-linecap="round" stroke-linejoin="round" stroke-width=".773402" d="m9.06794 1.98552 1.12626 3.95077-3.66228-1.83716c-1.10192-.55278-1.33685-2.01607-.4699-2.8859.97228-.975499 2.62511-.544642 2.99781.77229h.00811Zm2.45676 0-1.1263 3.95077 3.6623-1.83716c1.1019-.55278 1.3368-2.01607.4699-2.8859-.9723-.975499-2.6251-.544642-2.9978.77229h-.0081Z"/><path stroke="#fff" stroke-linejoin="round" stroke-width=".773402" d="M10.1914 6.7168V19.317"/></svg>