<svg width="32" height="32" viewBox="0 0 32 32" fill="none" xmlns="http://www.w3.org/2000/svg">
  <path d="M8 25V15.5L6.5 15V12H24.5L25 15H23V25H8Z" fill="url(#paint0_linear_12560_21333)"/>
  <path d="M8.39688 15.5692V15.0692H7.89688V15.5692H8.39688ZM23.5969 15.5692H24.0969V15.0692H23.5969V15.5692ZM25.1969 15.5692V16.0692H25.6969V15.5692H25.1969ZM6.79688 15.5692H6.29688V16.0692H6.79688V15.5692ZM14.4851 8.11323L14.9658 7.97574C14.9044 7.76115 14.7082 7.61323 14.4851 7.61323V8.11323ZM15.5971 12.0012L15.3735 12.4484C15.5508 12.5371 15.7639 12.5126 15.9164 12.3859C16.069 12.2593 16.1323 12.0544 16.0778 11.8637L15.5971 12.0012ZM11.9811 10.1933L11.7574 10.6405L11.7574 10.6405L11.9811 10.1933ZM11.5171 7.35322L11.8706 7.70678L11.5171 7.35322ZM14.477 8.11323L13.9961 8.24981C14.0571 8.46485 14.2535 8.61323 14.477 8.61323V8.11323ZM16.9089 8.11323V7.61323C16.6857 7.61323 16.4895 7.76115 16.4282 7.97574L16.9089 8.11323ZM15.7969 12.0012L15.3162 11.8637C15.2616 12.0544 15.3249 12.2593 15.4775 12.3859C15.6301 12.5126 15.8431 12.5371 16.0205 12.4484L15.7969 12.0012ZM19.4129 10.1933L19.6365 10.6405L19.6365 10.6405L19.4129 10.1933ZM19.8769 7.35322L19.5233 7.70678L19.8769 7.35322ZM16.9169 8.11323V8.61323C17.1404 8.61323 17.3368 8.46485 17.3979 8.24981L16.9169 8.11323ZM16.0969 12.7692C16.0969 12.4931 15.873 12.2692 15.5969 12.2692C15.3207 12.2692 15.0969 12.4931 15.0969 12.7692H15.5969H16.0969ZM15.0969 25.1692C15.0969 25.4454 15.3207 25.6692 15.5969 25.6692C15.873 25.6692 16.0969 25.4454 16.0969 25.1692H15.5969H15.0969ZM8.39688 15.5692V16.0692H23.5969V15.5692V15.0692H8.39688V15.5692ZM23.5969 15.5692H23.0969V24.3692H23.5969H24.0969V15.5692H23.5969ZM23.5969 24.3692H23.0969C23.0969 24.5331 22.9607 24.6692 22.7969 24.6692V25.1692V25.6692C23.513 25.6692 24.0969 25.0854 24.0969 24.3692H23.5969ZM22.7969 25.1692V24.6692H9.19688V25.1692V25.6692H22.7969V25.1692ZM9.19688 25.1692V24.6692C9.03302 24.6692 8.89688 24.5331 8.89688 24.3692H8.39688H7.89688C7.89688 25.0854 8.48073 25.6692 9.19688 25.6692V25.1692ZM8.39688 24.3692H8.89688V15.5692H8.39688H7.89688V24.3692H8.39688ZM7.59688 12.3692V12.8692H24.3969V12.3692V11.8692H7.59688V12.3692ZM24.3969 12.3692V12.8692C24.5607 12.8692 24.6969 13.0054 24.6969 13.1692H25.1969H25.6969C25.6969 12.4531 25.113 11.8692 24.3969 11.8692V12.3692ZM25.1969 13.1692H24.6969V15.5692H25.1969H25.6969V13.1692H25.1969ZM25.1969 15.5692V15.0692H6.79688V15.5692V16.0692H25.1969V15.5692ZM6.79688 15.5692H7.29688V13.1692H6.79688H6.29688V15.5692H6.79688ZM6.79688 13.1692H7.29688C7.29688 13.0054 7.43302 12.8692 7.59688 12.8692V12.3692V11.8692C6.88073 11.8692 6.29688 12.4531 6.29688 13.1692H6.79688ZM14.4851 8.11323L14.0043 8.25073L15.1163 12.1387L15.5971 12.0012L16.0778 11.8637L14.9658 7.97574L14.4851 8.11323ZM15.5971 12.0012L15.8207 11.554L12.2047 9.74604L11.9811 10.1933L11.7574 10.6405L15.3735 12.4484L15.5971 12.0012ZM11.9811 10.1933L12.2047 9.74605C11.4216 9.35451 11.2562 8.3212 11.8706 7.70678L11.5171 7.35322L11.1635 6.99967C10.066 8.09724 10.3645 9.94401 11.7574 10.6405L11.9811 10.1933ZM11.5171 7.35322L11.8706 7.70678C12.5627 7.01474 13.733 7.32345 13.9961 8.24981L14.477 8.11323L14.958 7.97666C14.4851 6.31102 12.3915 5.77171 11.1635 6.99967L11.5171 7.35322ZM14.477 8.11323V8.61323H14.4851V8.11323V7.61323H14.477V8.11323ZM16.9089 8.11323L16.4282 7.97574L15.3162 11.8637L15.7969 12.0012L16.2776 12.1387L17.3896 8.25073L16.9089 8.11323ZM15.7969 12.0012L16.0205 12.4484L19.6365 10.6405L19.4129 10.1933L19.1893 9.74604L15.5733 11.554L15.7969 12.0012ZM19.4129 10.1933L19.6365 10.6405C21.0294 9.94401 21.328 8.09724 20.2304 6.99967L19.8769 7.35322L19.5233 7.70678C20.1377 8.3212 19.9724 9.35451 19.1893 9.74605L19.4129 10.1933ZM19.8769 7.35322L20.2304 6.99967C19.0024 5.77171 16.9089 6.31102 16.4359 7.97666L16.9169 8.11323L17.3979 8.24981C17.6609 7.32345 18.8313 7.01474 19.5233 7.70678L19.8769 7.35322ZM16.9169 8.11323V7.61323H16.9089V8.11323V8.61323H16.9169V8.11323ZM15.5969 12.7692H15.0969V25.1692H15.5969H16.0969V12.7692H15.5969Z" fill="black"/>
  <defs>
    <linearGradient id="paint0_linear_12560_21333" x1="25.3982" y1="26.2466" x2="5.96931" y2="17.571" gradientUnits="userSpaceOnUse">
      <stop stop-color="#FFB490"/>
      <stop offset="0.5" stop-color="#F18477"/>
      <stop offset="1" stop-color="#D2232A"/>
    </linearGradient>
  </defs>
</svg>
