<svg xmlns="http://www.w3.org/2000/svg" width="17" height="18" fill="none"><circle cx="8.5" cy="9" r="8.1" stroke="#36080A" stroke-width=".8"/><path fill="#36080A" d="M6.6114 11.5984c.41451.4975 1.02591.7358 1.8342.7358.72538 0 1.29533-.1762 1.7098-.5389.4145-.3523.6425-.8601.7047-1.5233h-.943c-.06218.4353-.20725.7669-.45596 1.0052-.2487.2383-.59067.3523-1.01554.3523-.50778 0-.88083-.1761-1.12954-.5388-.2487-.3627-.37305-.9223-.37305-1.67878 0-.74612.12435-1.3057.37305-1.6684.24871-.36269.62176-.54922 1.12954-.54922.42487 0 .76684.12435 1.01554.35233.24871.23834.39378.56995.45596.99482h.943c-.0622-.64249-.3005-1.15026-.715-1.50259C9.73057 6.68653 9.16062 6.5 8.4456 6.5c-.80829 0-1.41969.2487-1.8342.73575C6.19689 7.73316 6 8.45855 6 9.41192c0 .97408.19689 1.69948.6114 2.18648Z"/></svg>