<svg xmlns="http://www.w3.org/2000/svg" width="24" height="24" fill="none"><mask id="a" fill="#fff"><path d="M13.1026 24.0006c-.1858 0-.3815-.0308-.5575-.0924l-8.44034-2.9381c-.2934-.1028-.60627-.072-.88011.0718l-2.689508 1.387c-.185821.0924-.410771.0102-.4987915-.1747-.0880203-.1952-.0098564-.4315.1661845-.5239l2.689505-1.3869c.44011-.2363.97799-.2774 1.44743-.113l8.44033 2.9381c.1956.0719.4106.0719.6062.0103l.4011-.113c.2445-.0719.4694-.185.665-.339l8.5184-6.6468c.2249-.1746.3325-.4828.2641-.7705l-.0781-.339c-.0489-.226-.2447-.3801-.4697-.3801-.0391 0-.0781.0102-.1172.0308l-8.0587 5.2394c-.1174.0719-.2545.0821-.3718 0l-2.9144-1.6849c-.1761-.1027-.2445-.339-.1467-.5342.0978-.1849.3228-.2568.5086-.1541l2.7189 1.5718 7.873-5.116c.1467-.1027.3225-.1541.5083-.1541.5673 0 1.0565.4006 1.1934.9759l.0781.3391c.1369.5958-.0685 1.2225-.538 1.5923l-8.5183 6.6468c-.2739.2157-.5868.3698-.9193.4725l-.4009.113c-.1565.0514-.3227.0719-.4792.0719Z"/></mask><path fill="#36080a" d="M13.1026 24.0006c-.1858 0-.3815-.0308-.5575-.0924l-8.44034-2.9381c-.2934-.1028-.60627-.072-.88011.0718l-2.689508 1.387c-.185821.0924-.410771.0102-.4987915-.1747-.0880203-.1952-.0098564-.4315.1661845-.5239l2.689505-1.3869c.44011-.2363.97799-.2774 1.44743-.113l8.44033 2.9381c.1956.0719.4106.0719.6062.0103l.4011-.113c.2445-.0719.4694-.185.665-.339l8.5184-6.6468c.2249-.1746.3325-.4828.2641-.7705l-.0781-.339c-.0489-.226-.2447-.3801-.4697-.3801-.0391 0-.0781.0102-.1172.0308l-8.0587 5.2394c-.1174.0719-.2545.0821-.3718 0l-2.9144-1.6849c-.1761-.1027-.2445-.339-.1467-.5342.0978-.1849.3228-.2568.5086-.1541l2.7189 1.5718 7.873-5.116c.1467-.1027.3225-.1541.5083-.1541.5673 0 1.0565.4006 1.1934.9759l.0781.3391c.1369.5958-.0685 1.2225-.538 1.5923l-8.5183 6.6468c-.2739.2157-.5868.3698-.9193.4725l-.4009.113c-.1565.0514-.3227.0719-.4792.0719Z"/><path fill="#36080a" d="m12.5451 23.9082.3304-.9438-.0017-.0006-.3287.9444Zm-8.44034-2.9381-.33047.9438.00171.0006.32876-.9444Zm-.88011.0718.45834.8888.00664-.0034-.46498-.8854Zm-2.689508 1.387.445472.8952.00645-.0032.006404-.0033-.458326-.8887Zm-.4987915-.1747-.9115985.4111.004239.0094.004432.0093.9029275-.4298Zm.1661845-.5239-.458339-.8888-.006643.0035.464982.8853Zm2.689505-1.3869.45833.8887.00738-.0038.00732-.0039-.47303-.881Zm1.44743-.113-.33047.9438.00171.0006.32876-.9444Zm8.44033 2.9381.345-.9386-.0081-.003-.0082-.0028-.3287.9444Zm.6062.0103-.2711-.9626-.0148.0042-.0147.0046.3006.9538Zm.4011-.113.2712.9626.011-.0032-.2822-.9594Zm.665-.339-.6152-.7885-.0036.0029.6188.7856Zm8.5184-6.6468-.6133-.7899-.0019.0015.6152.7884Zm.2641-.7705-.9746.2245.0017.0071.9729-.2316Zm-.0781-.339-.9775.2115.003.0129.9745-.2244Zm-.5869-.3493-.465-.8853-.0411.0216-.039.0253.5451.8384Zm-8.0587 5.2394.5224.8526.0114-.007.0112-.0073-.545-.8383Zm-.3718 0 .5736-.8192-.0356-.0249-.0375-.0217-.5005.8658Zm-2.9144-1.6849-.5041.8637.0036.0021.5005-.8658Zm-.1467-.5342-.8839-.4675-.0052.0097-.0049.0098.894.448Zm.5086-.1541.5005-.8657-.0083-.0048-.0083-.0046-.4839.8751Zm2.7189 1.5718-.5005.8658.5311.3069.5143-.3342-.5449-.8385Zm7.873-5.116.5449.8385.0145-.0094.0142-.01-.5736-.8191Zm1.7017.8218.9745-.2244-.0017-.0071-.9728.2315Zm.0781.3391.9746-.224-.0001-.0005-.9745.2245Zm-.538 1.5923.6152.7884.0037-.0029-.6189-.7855Zm-8.5183 6.6468-.6152-.7884-.0037.0029.6189.7855Zm-.9193.4725.2713.9625.012-.0034.0119-.0037-.2952-.9554Zm-.4009.113-.2713-.9625-.0204.0058-.0202.0066.3119.9501Zm-.4792.0719v-1c-.0819 0-.1651-.0145-.2271-.0362l-.3304.9438-.3305.9438c.2901.1016.5982.1486.888.1486v-1Zm-.5575-.0924.3287-.9444-8.44028-2.9381-.32876.9444-.32876.9444 8.4403 2.9381.3288-.9444Zm-8.44034-2.9381.33047-.9438c-.57197-.2003-1.17235-.134-1.67556.1303l.46498.8853.46498.8854c.0239-.0126.04213-.0165.05345-.0174.01057-.0009.02016.0001.03121.004l.33047-.9438Zm-.88011.0718-.45832-.8888-2.6895138 1.387.4583258.8888.458326.8887 2.689512-1.3869-.45833-.8888Zm-2.689508 1.387-.4454722-.8953c.3292322-.1639.7043422-.0143.8496092.2908l-.9029285.4298-.9029275.4298c.321307.675 1.146317.9889 1.847191.6401l-.445472-.8952Zm-.4987915-.1747.9115985-.4111c.064351.1427.064721.2915.024504.4166-.039663.1234-.133635.2659-.304937.3559l-.464981-.8853-.464982-.8853c-.677716.3559-.902463 1.178-.612801 1.8203l.9115985-.4111Zm.1661845-.5239.458325.8888 2.68951-1.387-.45833-.8887-.45832-.8888-2.689511 1.3869.458326.8888Zm2.689505-1.3869.47303.881c.19227-.1032.43857-.1221.64393-.0502l.33047-.9438.33047-.9438c-.73352-.2569-1.56299-.1936-2.25092.1757l.47302.8811Zm1.44743-.113-.32876.9444 8.44029 2.9381.3288-.9444.3287-.9444-8.44027-2.9381-.32876.9444Zm8.44033 2.9381-.3451.9386c.4175.1535.8603.1488 1.2519.0254l-.3006-.9537-.3006-.9538c.0019-.0006.0048-.0013.01-.0012.0055.0001.0157.0011.0294.0061l-.345.9386Zm.6062.0103.2711.9625.4012-.113-.2712-.9625-.2711-.9626-.4011.113.2711.9626Zm.4011-.113.2822.9594c.358-.1053.699-.2745 1.0017-.5129l-.6189-.7855-.6188-.7856c-.0886.0698-.1973.1267-.3283.1652l.2821.9594Zm.665-.339.6152.7883 8.5184-6.6467-.6152-.7884-.6152-.7884-8.5184 6.6468.6152.7884Zm8.5184-6.6468.6132.7899c.5431-.4216.7805-1.133.6237-1.7919l-.9728.2315-.9729.2316c-.0116-.0488-.0072-.0931.0054-.1297.0125-.0362.0389-.0815.0901-.1213l.6133.7899Zm.2641-.7705.9745-.2244-.0781-.339-.9745.2244-.9745.2244.0781.3391.9745-.2245Zm-.0781-.339.9774-.2115c-.1494-.6902-.7556-1.1686-1.4471-1.1686v2c-.2416 0-.4561-.1702-.5077-.4084l.9774-.2115Zm-.4697-.3801v-1c-.2211 0-.4184.0595-.5822.1455l.465.8853.465.8853c-.0855.0449-.2049.0839-.3478.0839v-1Zm-.1172.0308-.5451-.8384-8.0587 5.2394.5451.8384.545.8383 8.0588-5.2393-.5451-.8384Zm-8.0587 5.2394-.5225-.8527c.0692-.0424.1768-.0865.3164-.0894.1477-.0029.2922.0419.4079.1229l-.5736.8192-.5736.8191c.5072.3552 1.0827.2695 1.4678.0335l-.5224-.8526Zm-.3718 0 .5005-.8658-2.9145-1.6848-.5004.8657-.5005.8658 2.9144 1.6848.5005-.8657Zm-2.9144-1.6849.504-.8637c.3061.1787.3679.529.2434.7775l-.8941-.448-.894-.448c-.32011.6389-.1216 1.4618.5366 1.8459l.5041-.8637Zm-.1467-.5342.884.4675c-.1556.2943-.5402.43-.8592.2536l.4838-.8752.4839-.8751c-.6907-.3819-1.5252-.1024-1.8764.5617l.8839.4675Zm.5086-.1541-.5005.8658 2.7189 1.5718.5005-.8658.5005-.8657-2.7189-1.5718-.5005.8657Zm2.7189 1.5718.5449.8385 7.873-5.116-.5449-.8385-.5449-.8385-7.873 5.116.5449.8385Zm7.873-5.116.5736.8191c-.0169.0119-.0334.0191-.0464.023-.0127.0038-.0196.0038-.0189.0038v-2c-.3715 0-.7518.1038-1.0819.335l.5736.8191Zm.5083-.1541v1c.0754 0 .1841.054.2206.2075l.9728-.2316.9728-.2315c-.2373-.9972-1.107-1.7444-2.1662-1.7444v1Zm1.1934.9759-.9745.2244.0781.3391.9745-.2244.9745-.2245-.0781-.339-.9745.2244Zm.0781.3391-.9746.2239c.0558.2431-.0357.4674-.1822.5829l.6188.7855.6189.7855c.7923-.6242 1.1117-1.6532.8937-2.6018l-.9746.224Zm-.538 1.5923-.6151-.7884-8.5184 6.6468.6152.7884.6151.7884 8.5184-6.6468-.6152-.7884Zm-8.5183 6.6468-.6189-.7855c-.1639.1291-.363.2307-.5956.3026l.2952.9554.2952.9554c.4325-.1336.8591-.3401 1.2429-.6424l-.6188-.7855Zm-.9193.4725-.2713-.9625-.4009.113.2713.9625.2713.9625.4009-.113-.2713-.9625Zm-.4009.113-.3119-.9501c-.036.0118-.0937.022-.1673.022v2c.2393 0 .5141-.0309.7911-.1218l-.3119-.9501Z" mask="url(#a)"/><mask id="b" fill="#fff"><path d="m11.4117 18.2148-1.9756-.0719c-.20538 0-.36197-.1849-.36197-.4007 0-.2157.18595-.4006.38155-.3801l1.95602.072 4.8313-.0822c.264 0 .4792-.2158.5086-.4931l.0391-.5343c.0196-.2362-.137-.4417-.362-.4725l-9.31058-1.2431c-.18582-.0205-.3717 0-.54774.0514l-5.41794 1.9416c-.195602.072-.410982-.0411-.469663-.2466-.06846-.2054.039111-.4212.234712-.4931l5.427971-1.9416c.28362-.1027.57715-.1335.87055-.0924l9.31059 1.243c.6162.0822 1.0661.6575 1.0074 1.315l-.0392.5342c-.0586.678-.5868 1.202-1.2323 1.2122l-4.8508.0822Z"/></mask><path fill="#36080a" d="m11.4117 18.2148-1.9756-.0719c-.20538 0-.36197-.1849-.36197-.4007 0-.2157.18595-.4006.38155-.3801l1.95602.072 4.8313-.0822c.264 0 .4792-.2158.5086-.4931l.0391-.5343c.0196-.2362-.137-.4417-.362-.4725l-9.31058-1.2431c-.18582-.0205-.3717 0-.54774.0514l-5.41794 1.9416c-.195602.072-.410982-.0411-.469663-.2466-.06846-.2054.039111-.4212.234712-.4931l5.427971-1.9416c.28362-.1027.57715-.1335.87055-.0924l9.31059 1.243c.6162.0822 1.0661.6575 1.0074 1.315l-.0392.5342c-.0586.678-.5868 1.202-1.2323 1.2122l-4.8508.0822Z"/><path fill="#36080a" d="m9.4361 18.1429.03635-.9993-.01817-.0007H9.4361v1Zm.01958-.7808-.10447.9946.03378.0035.03395.0013.03674-.9994Zm1.95602.072-.0368.9993.0269.001.0269-.0005-.017-.9998Zm4.8313-.0822v-1h-.0085l-.0085.0001.017.9999Zm.5086-.4931.9944.1052.0017-.0161.0012-.016-.9973-.0731Zm.0391-.5343-.9966-.0825-.0007.0094.9973.0731Zm-.362-.4725.1358-.9908-.0034-.0005-.1324.9913Zm-9.31058-1.2431.13233-.9912-.0112-.0015-.01123-.0012-.1099.9939Zm-.54774.0514-.28011-.96-.02891.0085-.02834.0101.33736.9414Zm-5.41794 1.9416-.337376-.9414-.007692.0029.345068.9385Zm-.469663-.2466.961553-.2746-.00596-.0209-.00687-.0206-.948723.3161Zm.234712-.4931-.336825-.9416-.008242.0031.345067.9385Zm5.427971-1.9416.33681.9416.00375-.0014-.34056-.9402Zm.87055-.0924-.1387.9903.00637.0009.13233-.9912Zm9.31059 1.243-.1323.9912h.0001l.1322-.9912Zm1.0074 1.315-.996-.0889-.0007.0079-.0006.0079.9973.0731Zm-.0392.5342.9964.0862.001-.0131-.9974-.0731Zm-1.2323 1.2122-.0159-.9998h-.001l.0169.9998Zm-4.8508.0822.0363-.9994-1.97555-.0718-.03635.9993-.03635.9994 1.97555.0718.0364-.9993Zm-1.9756-.0719v-1c.4577 0 .638.3805.638.5993H8.07413c0 .6503.49351 1.4007 1.36197 1.4007v-1Zm-.36197-.4007h.99997c0 .1788-.07462.3281-.177.4301-.10075.1003-.29061.2112-.54589.1844l.10447-.9946.10447-.9945c-.88302-.0927-1.48602.6674-1.48602 1.3746h1Zm.38155-.3801-.03674.9994 1.95596.0719.0368-.9993.0367-.9994-1.95598-.0719-.03674.9993Zm1.95602.072.017.9998 4.8313-.0822-.017-.9998-.017-.9999-4.8313.0822.017.9999Zm4.8313-.0822v1c.8496 0 1.428-.679 1.503-1.3879l-.9944-.1052-.9945-.1052c.0163-.1543.1644-.4017.4859-.4017v1Zm.5086-.4931.9973.0731.0391-.5343-.9973-.0731-.9973-.0731-.0392.5343.9974.0731Zm.0391-.5343.9966.0825c.0599-.723-.4297-1.4371-1.2228-1.5458l-.1358.9908-.1357.9907c-.3432-.047-.5196-.3501-.4989-.6007l.9966.0825Zm-.362-.4725.1324-.9913-9.31065-1.243-.13233.9912-.13233.9912 9.31061 1.2431.1323-.9912Zm-9.31058-1.2431.1099-.9939c-.33098-.0366-.64967.0013-.93775.0853l.28011.96.2801.96c.06401-.0187.11707-.0219.15774-.0174l.1099-.994Zm-.54774.0514-.33736-.9414-5.417945 1.9417.337365.9413.33736.9414 5.41794-1.9416-.33736-.9414Zm-5.41794 1.9416-.345068-.9385c.374498-.1377.743178.0889.836958.4173l-.961553.2746-.961553.2746c.2111453.7394 1.010587 1.1921 1.776286.9106l-.34507-.9386Zm-.469663-.2466.948723-.3161c.10319.3097-.05991.648-.36894.7616l-.345071-.9386-.345067-.9385c-.700235.2574-1.078482 1.0271-.838366 1.7477l.948721-.3161Zm.234712-.4931.336811.9416 5.42797-1.9416-.33681-.9416-.33681-.9416-5.427973 1.9417.336812.9415Zm5.427971-1.9416.34056.9402c.13198-.0478.26106-.0605.39129-.0423l.1387-.9903.13871-.9904c-.45657-.0639-.91456-.0151-1.34983.1426l.34057.9402Zm.87055-.0924-.13233.9912 9.31062 1.243.1323-.9912.1324-.9912-9.31065-1.243-.13234.9912Zm9.31059 1.243-.1322.9912c.0532.0071.1576.0775.1436.2349l.996.0889.996.0889c.1034-1.1576-.692-2.2379-1.8712-2.3951l-.1322.9912Zm1.0074 1.315-.9973-.0731-.0392.5342.9973.0731.9974.0731.0391-.5342-.9973-.0731Zm-.0392.5342-.9962-.0862c-.0189.2185-.1691.2972-.252.2986l.0159.9998.016.9999c1.2081-.0192 2.1142-.9884 2.2126-2.1259l-.9963-.0862Zm-1.2323 1.2122-.0169-.9998-4.8508.0821.0169.9999.0169.9998 4.8509-.0821-.017-.9999Z" mask="url(#b)"/><mask id="c" fill="#fff"><path d="M16.0959 15.802c-.1467 0-.2835-.0924-.3422-.2465-.0782-.2055.0195-.4315.2053-.5034l3.6186-1.5102c.2836-.1027.5869-.1027.8608 0 .5966.2157.9878.8116.9878 1.4691v.1232c0 .2158-.1664.3904-.3718.3904-.2054 0-.3715-.1746-.3715-.3904v-.1232c0-.3288-.1956-.6164-.489-.7294-.1174-.0411-.2446-.0411-.3522 0l-3.6088 1.4998s-.0881.0309-.137.0309v-.0103Z"/></mask><path fill="#36080a" d="M16.0959 15.802c-.1467 0-.2835-.0924-.3422-.2465-.0782-.2055.0195-.4315.2053-.5034l3.6186-1.5102c.2836-.1027.5869-.1027.8608 0 .5966.2157.9878.8116.9878 1.4691v.1232c0 .2158-.1664.3904-.3718.3904-.2054 0-.3715-.1746-.3715-.3904v-.1232c0-.3288-.1956-.6164-.489-.7294-.1174-.0411-.2446-.0411-.3522 0l-3.6088 1.4998s-.0881.0309-.137.0309v-.0103Z"/><path fill="#36080a" d="M16.0959 15.802h1v-1h-1v1Zm-.3422-.2465.9345-.3559-.9345.3559Zm.2053-.5034.361.9326.0121-.0047.0121-.0051-.3852-.9228Zm3.6186-1.5102-.3406-.9402-.0225.0081-.022.0092.3851.9229Zm.8608 0-.3513.9363.0112.0041.3401-.9404Zm-.2445.7397.3594-.9332-.0144-.0055-.0146-.0051-.3304.9438Zm-.3522 0-.3568-.9342-.0136.0052-.0134.0056.3838.9234Zm-3.6088 1.4998.3303.9439.0271-.0094.0264-.011-.3838-.9235Zm-.137.0309h-1v1h1v-1Zm0-.0103v-1c.2883 0 .5106.1829.5923.3976l-.9345.3559-.9345.3558c.1991.5229.695.8907 1.2767.8907v-1Zm-.3422-.2465.9345-.3559c.1007.2642.0023.6417-.3682.7851l-.361-.9326-.3609-.9326c-.7422.2872-1.036 1.1167-.7789 1.7918l.9345-.3558Zm.2053-.5034.3852.9228 3.6186-1.5102-.3852-.9228-.3851-.9229-3.6186 1.5102.3851.9229Zm3.6186-1.5102.3406.9402c.0675-.0245.1254-.0203.1689-.0039l.3513-.9363.3512-.9363c-.5041-.1891-1.0529-.1849-1.5526-.0039l.3406.9402Zm.8608 0-.3401.9404c.1657.0599.3279.2541.3279.5287h2c0-1.0405-.6203-2.038-1.6478-2.4095l-.34.9404Zm.9878 1.4691h-1v.1232h2v-.1232h-1Zm0 .1232h-1c0-.29.2359-.6096.6282-.6096v2c.8031 0 1.3718-.6689 1.3718-1.3904h-1Zm-.3718.3904v-1c.3931 0 .6285.3204.6285.6096h-2c0 .7207.5676 1.3904 1.3715 1.3904v-1Zm-.3715-.3904h1v-.1232h-2v.1232h1Zm0-.1232h1c0-.7276-.4366-1.3957-1.1296-1.6626l-.3594.9332-.3594.9332c-.1062-.0409-.1516-.1338-.1516-.2038h1Zm-.489-.7294.3304-.9438c-.3212-.1125-.6928-.1228-1.0394.0096l.3568.9342.3568.9342c-.1314.0502-.2486.0399-.3351.0096l.3305-.9438Zm-.3522 0-.3838-.9234-3.6088 1.4998.3838.9234.3838.9235 3.6088-1.4999-.3838-.9234Zm-3.6088 1.4998c-.3303-.9438-.3302-.9439-.3301-.9439h.0001c.0001-.0001.0002-.0001.0003-.0001l.0006-.0003c.0004-.0001.0008-.0002.0012-.0004.0007-.0002.0014-.0004.002-.0006.0012-.0005.0022-.0008.003-.0011.0016-.0005.0027-.0009.0033-.0011.0008-.0002.0022-.0007.0052-.0015.0017-.0004.013-.0036.0318-.0072.011-.0021.0667-.0129.1456-.0129v2c.1725 0 .3228-.0432.3511-.051.0311-.0085.0576-.0167.0764-.0227.0097-.0031.018-.0059.0247-.0081.0033-.0011.0062-.0021.0088-.003.0012-.0004.0024-.0008.0035-.0012.0005-.0002.001-.0003.0015-.0005.0002-.0001.0004-.0002.0007-.0003.0001 0 .0002 0 .0003-.0001h.0002c0-.0001.0001-.0001-.3302-.944Zm-.137.0309h1v-.0103h-2v.0103h1Z" mask="url(#c)"/><path fill="#36080a" d="M12.0448 12.6892c-.0783 0-.1663-.0309-.2347-.0822-.225-.185-5.39867-4.57163-6.18107-7.20157-.43032-1.21223-.3129-2.71212.31303-3.79081C6.47018.710583 7.28185.155853 8.30875.0325751 10.2159-.213982 11.4971.99823 12.0546 1.67626 12.612.99823 13.8835-.213982 15.8004.0325751 16.8175.166127 17.639.710583 18.1671 1.61462c.6259 1.08896.7433 2.5786.3032 3.81138-.7726 2.60939-5.9561 6.996-6.181 7.181-.0685.0616-.1467.0822-.2347.0822h-.0098ZM8.78796.772215c-.12714 0-.26397.00003-.40089.030849-.99757.123279-1.53557.729386-1.8192 1.212226-.50856.87322-.60636 2.13681-.2445 3.13331.63571 2.12656 4.69453 5.753 5.71163 6.6467 1.0171-.8937 5.0759-4.52012 5.7116-6.62613.3619-1.01705.2641-2.28066-.2445-3.15388-.2836-.48284-.8216-1.088947-1.8192-1.212226C13.59.535962 12.3969 2.44677 12.348 2.52895c-.0684.11301-.1859.18491-.313.18491s-.2446-.0719-.313-.18491C11.6731 2.45704 10.6364.782498 8.78796.782498V.772215Z"/></svg>