<svg xmlns="http://www.w3.org/2000/svg" width="24" height="24" fill="none"><path stroke="#36080a" stroke-miterlimit="10" d="M19.2198 19.638c0 .3298-.0728.6697-.2287.9995-.1591.3408-.3679.6557-.6195.9344-.4474.4947-.9393.8509-1.4981 1.081-.5466.23-1.1397.3481-1.7774.3481-.9313 0-1.9252-.2199-2.9759-.6677-1.1108-.4843-2.16344-1.0934-3.13789-1.8159-1.05981-.7785-2.05999-1.6359-2.9921-2.565-.92221-.9321-1.77288-1.9331-2.5447-2.9945-.70932-.9713-1.3095-2.0186-1.7896-3.1227C1.21864 10.7868 1 9.78929 1 8.83862c0-.62293.10932-1.21735.32796-1.76699.21864-.55981.56684-1.07281 1.05067-1.53084.58304-.57814 1.22073-.8611 1.89689-.8611.25508 0 .51016.05496.73892.16489.23686.10993.44537.27482.61137.513l2.11756 2.99654c.16195.228.28341.43971.36439.64125.08098.19135.12754.38474.12754.55778-.00263.2309-.06923.45645-.19232.65145-.14057.2383-.31213.4567-.51016.6494l-.69437.7247c-.04831.0475-.08622.1046-.11131.1677-.0251.0631-.03683.1308-.03445.1987 0 .0712.01012.1364.02834.2097.02632.0733.05466.1282.07288.1832.16195.3033.44537.6962.84823 1.1725.41096.4764.84824.9629 1.32195 1.4474.49396.4866.96768.9344 1.45151 1.3477.4737.401.8665.6758 1.1762.8407l.166.0753c.0727.0261.1496.0385.2267.0367.0699.0015.1393-.0117.2037-.0387.0645-.027.1227-.0672.1709-.1181l.6923-.6881c.2288-.2279.4474-.401.6579-.5129.1937-.1241.4183-.1905.6479-.1914.1916.0028.3808.0437.5567.1201.2004.0814.4109.1995.6377.3563l3.0204 2.1537c.2189.1432.3929.3458.5021.5843.0946.2262.1441.469.1457.7145Z"/><path stroke="#36080a" stroke-linecap="round" stroke-linejoin="round" d="M11.9082 5.37305c3.9444-.51916 7.5537 2.27018 8.07 6.23645"/><path stroke="#36080a" stroke-linecap="round" stroke-linejoin="round" d="M11.5137 2.33789c5.6104-.73845 10.752 3.23498 11.4864 8.87661"/></svg>