<svg xmlns="http://www.w3.org/2000/svg" width="24" height="26" fill="none"><path stroke="#36080a" stroke-linecap="round" stroke-linejoin="round" stroke-width="1.24" d="M21 9.97007c0 5.30973-6.0565 12.33253-8.2271 14.69473-.4129.4469-1.1223.4469-1.5458 0-2.18119-2.3516-8.23767-9.3531-8.22709-14.69473C3.00001 5.01152 7.03413 1 12 1c4.9659 0 9 4.02216 9 8.97007Z"/><path stroke="#36080a" stroke-linecap="round" stroke-linejoin="round" stroke-width="1.24" d="M12.0009 14.3758c2.3391 0 4.2353-1.9056 4.2353-4.2563 0-2.35062-1.8962-4.25622-4.2353-4.25622-2.33907 0-4.23528 1.9056-4.23528 4.25622 0 2.3507 1.89621 4.2563 4.23528 4.2563Z"/></svg>