<svg xmlns="http://www.w3.org/2000/svg" width="40" height="26" fill="none"><path fill="url(#a)" d="M39.9965 11.8476 39.9966 0H23.8758c-1.8469 0-3.3581 1.28361-3.3581 4.05618l-.0001 21.82622c1.0328-.016 2.2181-.319 3.4642-1.1961 0 0 8.2721-4.6415 12.4046-6.954 3.4207-1.9113 3.6128-5.0612 3.6128-5.7494 0-.0876-.0027-.1348-.0027-.1348v-.0005Z"/><path fill="#D2232A" d="M3.63148 17.7279c4.163 2.3176 12.53352 6.9528 12.53352 6.9528 1.269.8798 2.4488 1.1802 3.4952 1.2017V3.87414C19.5934 1.08446 18.1018.0329592 16.2763.0329594L.00276756.0329615.00276916 11.8481S-.242115 15.582 3.65374 17.7279h-.02226Z"/><defs><linearGradient id="a" x1="16.7083" x2="47.6286" y1="-4.58548" y2="29.9455" gradientUnits="userSpaceOnUse"><stop stop-color="#D2232A"/><stop offset=".471766" stop-color="#F18477"/><stop offset="1" stop-color="#FFB490"/></linearGradient></defs></svg>