<svg xmlns="http://www.w3.org/2000/svg" width="150" height="40" fill="none"><path fill="#202020" d="M.727539 24.7471c-.029297-.0586-.068359-.1221-.117187-.1905-.058594-.0781-.10254-.1513-.131836-.2197-.029297-.0586-.043946-.1025-.043946-.1318 0-.0196.004883-.0391.014649-.0586.283203-.6055.605471-1.1963.966801-1.7725l.02929-.0586c.0586-.0976.12207-.2002.19043-.3076.44922-.7812.92285-1.5381 1.4209-2.2705.08789-.1172.2002-.21.33691-.2783.14649-.0781.26856-.1172.36622-.1172.03906 0 .07324.0049.10253.0146.14649.0489.28809.1465.42481.293.13672.1367.21484.2735.23437.4102 0 .4297-.20019.9863-.60058 1.6699-.40039.6934-.87402 1.333-1.4209 1.9189-.53711.586-1.01562.9522-1.43555 1.0987-.04883.0097-.112302.0146-.190427.0146-.039062-.0097-.08789-.0146-.146484-.0146ZM33.7207 10.1133c-.0879.039-.1953.083-.3223.1318-.4101.1758-.8935.3906-1.4502.6445-.1562.0684-.3125.1416-.4687.2198-.0684.039-.1416.0781-.2197.1172-.0098-.0977-.0196-.1905-.0293-.2784-.0293-.1757-.044-.3515-.044-.5273v-.1318c.0391-.2344.1416-.44437.3076-.62992.5371-.57617 1.0791-.88379 1.626-.92285.5469-.04883.8936-.07324 1.0401-.07324.7812 0 1.5332.15136 2.2558.4541.8496.37109 1.416.92771 1.6992 1.66991.0489.1953.0733.4004.0733.6152 0 .2247-.0293.4688-.0879.7325-.1172.4882-.293.9277-.5274 1.3183-.6445 1.0157-1.4502 1.8994-2.417 2.6514-1.3671 1.0547-2.788 2.0508-4.2626 2.9883l-.4688.2929c-.0879.0586-.1904.0879-.3076.0879h-.3662l-.1758-.0146-.1758.0146c.0391-.0879.0733-.1806.1026-.2783.0683-.2246.166-.4004.2929-.5273.4883-.3809.9863-.7569 1.4942-1.128.6738-.4687 1.3232-.9619 1.9482-1.4795l.1465-.1171c1.0351-.8008 1.9678-1.6944 2.7978-2.6807.4981-.6445.7471-1.1914.7471-1.6406 0-.7422-.6885-1.2061-2.0654-1.3916-.1367-.0196-.3223-.0391-.5567-.0586-.1464-.0196-.3418-.0391-.5859-.0586ZM17.3584 21.6855c.2441-.8984.4785-1.7773.7031-2.6367.5371-2.0605 1.0596-4.0674 1.5674-6.0205.127-.5078.2441-1.0205.3516-1.5381.1172-.5761.249-1.1474.3955-1.71383.0683-.30274.166-.52735.2929-.67383.127-.15625.2637-.23438.4102-.23438.127 0 .2734.03907.4395.11719.2734.13672.4589.28809.5566.4541.1074.15625.1611.30762.1611.4541 0 .16605-.0439.37105-.1318.61525-.5957 1.4844-1.1133 2.998-1.5527 4.541-.1075.3711-.2198.7373-.337 1.0986-.2929.9571-.5712 1.9141-.8349 2.8711-.1856.6543-.376 1.3135-.5713 1.9776-.0781.332-.2148.6152-.4102.8496-.0976.1074-.2148.1855-.3515.2344-.127.0585-.2344.0878-.3223.0878-.0391 0-.0732-.0048-.1025-.0146-.0489-.0098-.0928-.0391-.1319-.0879-.0293-.0488-.0537-.1025-.0732-.1611-.0195-.0586-.0342-.1123-.044-.1612l-.0146-.0586Zm5.2441-4.8632c.0196-.0391.044-.1075.0733-.2051.039-.1563.0928-.3076.1611-.4541.0684-.1465.1416-.2295.2197-.249h.1026c.1758 0 .3564.0341.542.1025.2148.0781.4248.1709.6299.2783.0683.0391.1367.0733.205.1026.0293.0195.0537.0683.0733.1464.0293.0684.0439.1416.0439.2198.0098.0781 0 .1367-.0293.1758-.332.4882-.498.9228-.498 1.3037 0 .1562.0293.3027.0879.4394.205.4785.5175.9229.9375 1.333.2246.2246.4248.4541.6006.6885.0976.1367.1757.2881.2343.4541.0293.0684.0635.1367.1026.2051-.0684.0195-.1416.0488-.2198.0879-.0781.039-.1464.0683-.205.0879-.0586.0195-.1075.0293-.1465.0293-.0293 0-.0537-.0049-.0733-.0147l-.2343-.0879c-.4883-.1269-.8887-.3369-1.2012-.6299-.9375-.9961-1.4063-2.3339-1.4063-4.0136ZM6.97266 39.1025c-.07813-.2832-.14649-.5224-.20508-.7177-.09766-.2442-.14649-.4444-.14649-.6006 0-.0391.00489-.0733.01465-.1026.52735-2.0117 1.06934-4.0234 1.62598-6.0351l.43945-1.6113c.27344-.9864.55176-1.9727.83496-2.959.66407-2.3242 1.28907-4.6582 1.87497-7.002.2539-1.123.4541-2.2607.6006-3.4131.1074-.7617.2295-1.5185.3662-2.2705.2442-1.3379.5567-2.6611.9375-3.9697.0586-.1465.1709-.2832.3369-.4102.1758-.12691.337-.19039.4834-.19039h.0293c.2832.0293.4444.12207.4834.27829.0489.1465.0733.2735.0733.3809 0 .1269-.0147.2685-.044.4248-.4297 1.9434-.8203 3.8965-1.1718 5.8594-.8692 4.5703-2.0264 9.0625-3.4717 13.4765-.38088 1.25-.74709 2.5-1.09865 3.75-.3125 1.1231-.63477 2.2412-.9668 3.3545-.09766.293-.27344.6201-.52734.9815-.13672.2148-.29297.4736-.46875.7763ZM67.1777 14.2881c-.0879-.4785-.1318-.8985-.1318-1.2598 0-.5957.1172-1.0254.3516-1.289.2734-.3028.7421-.4541 1.4062-.4541.2637 0 .5567.0244.8789.0732 1.1817.1172 2.3242.332 3.4278.6445 1.1132.3125 2.1044.918 2.9736 1.8164.2637.2832.5078.5909.7324.9229.2246.332.3369.6299.3369.8935v.0733c-.1074.5176-.3613.8838-.7617 1.0986-.3906.2051-.8105.3076-1.2598.3076-.0781 0-.1562-.0048-.2343-.0146-.5176-.0293-1.0401-.044-1.5674-.044-.2149.0098-.4248.0147-.6299.0147-1.4453 0-2.8564-.2686-4.2334-.8057-1.377-.5957-2.793-.8935-4.248-.8935-.6348 0-1.2745.0586-1.919.1758-1.7969.1562-3.3496.8544-4.6582 2.0947-.3613.3808-.7568.7275-1.1865 1.04-.127.0684-.2832.1074-.4688.1172-.0781 0-.1513.0098-.2197.0293-.0195-.1074-.0488-.21-.0879-.3076-.0293-.1172-.0537-.21-.0732-.2783-.0098-.0782-.0147-.1319-.0147-.1612 0-.0683.0147-.1269.044-.1758.8886-1.7578 2.2509-2.8906 4.0869-3.3984.7617-.1562 1.5429-.2344 2.3437-.2344.2051 0 .4102.0049.6153.0147h1.1718c.3418-.0098.6934-.0147 1.0547-.0147.3711 0 .7471.0049 1.128.0147h1.1425Zm1.2598-1.3037c.0781.2246.1416.4541.1904.6885.0782.3808.1953.7275.3516 1.04.166.3125.459.542.8789.6885.0684.0195.1416.0439.2197.0732.6739.2246 1.2256.376 1.6553.4541.4395.0684.7568.1025.9521.1025.4981 0 1.001-.0976 1.5088-.2929.3418-.1465.5176-.293.5274-.4395.0097-.1562.0146-.2392.0146-.249 0-.2637-.1611-.5127-.4834-.7471-1.289-.9668-2.7392-1.4502-4.3506-1.4502-.4785 0-.9668.044-1.4648.1319Zm13.5645 8.9795c-.254-.0782-.4981-.1563-.7325-.2344-.4785-.1367-.9228-.3027-1.333-.4981-.6445-.3418-1.04-.8447-1.1865-1.5087-.0391-.1758-.0586-.3467-.0586-.5127 0-.4981.1514-.9961.4541-1.4942.5078-.7617 1.1377-1.3379 1.8897-1.7285.7519-.3906 1.5478-.7227 2.3877-.9961 1.2695-.4687 2.5244-.9814 3.7646-1.5381.4297-.1855.8594-.3662 1.2891-.542.5078-.2148.7617-.5029.7617-.8642 0-.2051-.0733-.4248-.2197-.6592-.1661-.2441-.3272-.4932-.4834-.7471-.3321-.5371-.7032-1.04001-1.1133-1.50876-.4102-.47852-.9375-.8545-1.5821-1.12793-.0878-.03907-.166-.11231-.2343-.21973-.0684-.10742-.1319-.22949-.1905-.36621-.0586-.11719-.1123-.21485-.1611-.29297.1074-.04883.2246-.10742.3516-.17578.3027-.17578.6006-.27344.8935-.29297.1758.00977.3565.07813.542.20508.1953.12695.3662.27344.5127.43945.2149.23438.4346.46875.6592.70313.9375.95703 1.792 1.96289 2.5635 3.01759.2441.4394.3662.8447.3662 1.2158 0 .7617-.5078 1.3916-1.5235 1.8897-1.4843.625-2.9736 1.2353-4.4677 1.831l-2.5196 1.0254c-.1367.0488-.2685.0977-.3955.1465-.4687.1465-.8838.3613-1.2451.6445-.3906.3418-.5859.6934-.5859 1.0547 0 .0684.0244.2295.0732.4834.0586.2539.3809.5078.9668.7617.1074.0391.2295.0586.3662.0586.0781.0098.1465.0195.2051.0293.0684.0098.1221.0342.1611.0733.2832.2636.5469.5517.7911.8642.1074.127.2001.2344.2783.3223-.293.1269-.5909.2539-.8936.3808-.1367.0586-.2588.1416-.3662.2491l.0147-.0879Zm27.788-1.919c-.205-.8887-.415-1.748-.63-2.5781-.488-1.8945-.898-3.75-1.23-5.5664-.049-.293-.103-.5859-.161-.8789-.206-.6641-.308-1.33302-.308-2.00685 0-.6543.098-1.31836.293-1.99219.029-.07812.058-.16113.088-.24902.058-.23438.132-.40528.22-.5127.097-.11719.205-.17578.322-.17578.088 0 .195.02442.322.07324.156.07813.293.19532.41.35157.127.15625.244.32714.352.51269.058.09766.117.19043.176.27832v.11719l-.059.17578c-.029.06836-.054.13184-.073.19043-.078.47852-.117.95215-.117 1.4209 0 .92772.141 1.83592.424 2.72462.078.332.152.6592.22.9814.254 1.5039.381 3.0323.381 4.585v.1758c0 .4004.01.7959.029 1.1865-.019.2344-.141.4834-.366.7471-.098.1367-.195.2832-.293.4394ZM105 30.4746c4.502-3.9453 7.466-8.667 8.892-14.165.332-1.6016.503-3.2325.512-4.8926l.059-1.084v-.4248c0-.27343.034-.51758.102-.73242.079-.2539.289-.4541.63-.60058.049-.00977.103-.01465.161-.01465h.088c.108.00976.201.02929.279.05859.088.0293.141.06348.161.10254.185.52734.278 1.05957.278 1.59672v.0732c-.039.4785-.107.9522-.205 1.4209-.107.4687-.181.9424-.22 1.4209-.449 4.7461-2.124 9.0039-5.024 12.7734-.84 1.1231-1.719 2.212-2.637 3.2666-.332.42-.693.7325-1.084.9375-.39.2149-.81.3223-1.26.3223-.224 0-.468-.0195-.732-.0586Zm21.021-10.7373c.166-.2246.322-.4346.468-.6299.303-.3711.557-.7226.762-1.0547.059-.0976.117-.2002.176-.3076.381-.5664.674-1.1621.879-1.7871.185-.6055.278-1.2158.278-1.831v-.0879c-.01-.6348-.273-1.2207-.791-1.7579-.488-.4199-1.001-.6494-1.538-.6884-.537-.0391-.869-.0586-.996-.0586-.752 0-1.397.1416-1.934.4248-.117.0683-.244.1611-.381.2783-.136.1074-.249.2148-.337.3223-.087.0976-.131.1758-.131.2343l.014.0147c.088.293.132.581.132.8643 0 .1269-.005.249-.015.3662-.048.3906-.131.7812-.249 1.1718-.185.4981-.278 1.001-.278 1.5088 0 .2246.02.4492.059.6739.058.2636.088.5273.088.791 0 .3418-.049.6836-.147 1.0254-.039.1562-.112.3222-.22.498-.097.1758-.205.3272-.322.4541-.117.1172-.225.1758-.322.1758-.264-.0293-.537-.1172-.82-.2637-.284-.1562-.494-.3418-.63-.5566-.518-.9278-.777-1.8799-.777-2.8565 0-.7715.161-1.5625.484-2.373.713-1.8262 1.977-3.1055 3.794-3.8379.927-.2637 1.777-.3955 2.548-.3955 1.846 0 3.218.7666 4.117 2.2998.156.2539.273.5127.351.7764.078.2539.117.4687.117.6445 0 .0879-.004.1758-.014.2637-.323 1.3476-.757 2.6611-1.304 3.9404-.42 1.1816-1.343 1.7725-2.769 1.7725-.097 0-.195-.0049-.292-.0147Zm-.865 10.7373c4.502-3.9453 7.466-8.667 8.892-14.165.332-1.6016.503-3.2325.513-4.8926l.058-1.084v-.4248c0-.27343.034-.51758.103-.73242.078-.2539.288-.4541.63-.60058.048-.00977.102-.01465.161-.01465h.088c.107.00976.2.02929.278.05859.088.0293.142.06348.161.10254.186.52734.278 1.05957.278 1.59672v.0732c-.039.4785-.107.9522-.205 1.4209-.107.4687-.18.9424-.219 1.4209-.45 4.7461-2.124 9.0039-5.025 12.7734-.84 1.1231-1.719 2.212-2.637 3.2666-.332.42-.693.7325-1.084.9375-.39.2149-.81.3223-1.259.3223-.225 0-.469-.0195-.733-.0586Zm18.706-29.07714c.196-.07812.401-.15625.616-.23437.488-.195317 1.069-.429692 1.743-.703129 0 .253906.009.50293.029.747069.01.22461.015.41016.015.55664 0 .14649-.02.22949-.059.24903-.83.26367-1.411.70312-1.743 1.31835-.332.61524-.576 1.25977-.733 1.9336-.058.21484-.117.41992-.175.61523-.948 3.19336-1.778 6.41602-2.491 9.66802-.156.6542-.307 1.3085-.454 1.9628-.166.8008-.273 1.6114-.322 2.4317-.029.3125-.059.6299-.088.9521-.049.459-.097.9912-.146 1.5967-.02.3223-.049.6983-.088 1.1279-.928-1.2793-1.392-2.5-1.392-3.6621 0-.3027.034-.6054.103-.9082 1.015-6.0351 2.744-11.91892 5.185-17.65134Zm5.86 12.78804c-1.182.586-2.217 1.0987-3.106 1.5381-.166.4493-.249.8692-.249 1.2598 0 .9668.479 1.7773 1.436 2.4316-.098.0098-.205.0293-.323.0586-.126.0391-.224.0635-.292.0733-.069.0097-.118.0146-.147.0146-.068 0-.127-.0195-.176-.0586-.058-.039-.117-.083-.176-.1318-.683-.459-1.25-1.001-1.699-1.626-.215-.3515-.322-.7031-.322-1.0547 0-.459.186-.9131.557-1.3623.556-.6152 1.079-1.0156 1.567-1.2011.498-.1954.918-.293 1.26-.293.498 0 1.054.1172 1.67.3515Z"/></svg>