<svg xmlns="http://www.w3.org/2000/svg" width="21" height="22" fill="none"><path stroke="#fff" stroke-linecap="round" stroke-miterlimit="10" stroke-width=".96" d="M6.53451 18.6243c.84387-.8438.84387-2.2062 0-3.0501-.84387-.8439-2.20627-.8439-3.05013 0M18.2275 6.93132c-.8438.84387-2.2062.84387-3.0501 0-.8439-.84387-.8439-2.20627 0-3.05014"/><path stroke="#fff" stroke-linecap="round" stroke-miterlimit="10" stroke-width=".96" d="M3.48763 15.5736.945855 13.0318c-.279595-.2796-.279595-.7371 0-1.0167L11.6213 1.33962c.2796-.27959.7371-.27959 1.0167 0l2.5418 2.54178m3.0475 3.04948 2.0334 2.03342c.2796.2796.2796.73711 0 1.01671L9.58529 20.6565c-.2796.2796-.73712.2796-1.01671 0L6.53516 18.623"/></svg>